<svg width="138" height="48" viewBox="0 0 138 48" fill="none" xmlns="http://www.w3.org/2000/svg">
<g clip-path="url(#clip0_2106_133)">
<path d="M5.95396 32.1823H8.28159C8.82926 32.1823 9.34271 31.8742 9.61655 31.4292L12.1153 27.1162C12.2522 26.8424 12.2522 26.5343 12.1153 26.2605C11.8415 25.7813 11.8415 25.1994 12.1153 24.7202L16.086 17.8057C16.3598 17.3265 16.3598 16.7446 16.086 16.2654L14.5456 13.5955C14.2718 13.1505 13.6214 13.1505 13.3476 13.5955L0.100657 36.7006C-0.207412 37.2483 0.169117 37.9671 0.819483 37.9671H0.853713C1.40139 37.9671 1.91484 37.659 2.18868 37.214L4.65322 32.9353C4.92706 32.4903 5.40628 32.1823 5.95396 32.1823Z" fill="#EA4D4D"/>
<path d="M24.3029 35.5706L22.6599 32.6953C22.523 32.4899 22.3176 32.353 22.078 32.353H16.5328C16.2931 32.353 16.0535 32.4899 15.9508 32.6953L15.677 33.2088C15.5401 33.4142 15.3347 33.5511 15.0951 33.5511H6.16112C5.92151 33.5511 5.6819 33.688 5.57921 33.8934L3.79926 36.9741C3.52542 37.419 3.86772 38.0009 4.38117 38.0009L30.9435 37.9667C31.5939 37.9667 32.0046 37.2479 31.6966 36.7002C31.4227 36.221 30.9093 35.9472 30.3616 35.9472H24.9875C24.6452 35.9129 24.4056 35.8102 24.3029 35.5706Z" fill="#EA4D4D"/>
<path d="M18.2418 17.2922L16.5987 20.1675C16.4618 20.3729 16.4618 20.6467 16.5987 20.8521L19.3713 25.6785C19.5083 25.8839 19.7136 26.0208 19.9533 26.0208H20.5352C20.7748 26.0208 21.0144 26.1577 21.1171 26.3631L25.6012 34.0991C25.7381 34.3044 25.9435 34.4414 26.1831 34.4414H29.743C30.2564 34.4414 30.5987 33.8594 30.3249 33.4145L17.0437 10.412C16.7014 9.83011 15.8799 9.83011 15.5718 10.412C15.298 10.8912 15.298 11.4731 15.5718 11.9524L18.2418 16.6076C18.3444 16.8472 18.3444 17.0868 18.2418 17.2922Z" fill="#EA4D4D"/>
</g>
<g clip-path="url(#clip1_2106_133)">
<path d="M84.6834 15H80.5583V33H84.6834V15Z" fill="#EA4D4D"/>
<path d="M52.1912 15V20.375L54.3162 26.0625H52.1912V29.25H55.5037L56.9412 33H61.1287L54.5037 15H52.1912Z" fill="#EA4D4D"/>
<path d="M41.6873 33H45.9373L47.3123 29.25H50.6248V26.0625H48.4998L50.6248 20.1875V15H48.3748L41.6873 33Z" fill="#EA4D4D"/>
<path d="M105.562 33H109.812L111.187 29.25H114.5V26.0625H112.375L114.5 20.1875V15H112.25L105.562 33Z" fill="#EA4D4D"/>
<path d="M118.375 15H116.062V20.375L118.187 26.0625H116.062V29.25H119.375L120.812 33H125.062L118.375 15Z" fill="#EA4D4D"/>
<path d="M77.6873 29.8135H73.3123V33.001H77.6873V29.8135Z" fill="#EA4D4D"/>
<path d="M68.3123 15H64.1873V33H71.7498V29.8125H68.3123V15Z" fill="#EA4D4D"/>
<path d="M105.246 15H102.558V18.1875H105.246V15Z" fill="#EA4D4D"/>
<path d="M87.3748 18.1875H94.2498V33H98.3748V18.1875H101V15H87.3748V18.1875Z" fill="#EA4D4D"/>
</g>
<defs>
<clipPath id="clip0_2106_133">
<rect width="31.6968" height="28" fill="white" transform="translate(0 10)"/>
</clipPath>
<clipPath id="clip1_2106_133">
<rect width="83.375" height="18" fill="white" transform="translate(41.6968 15)"/>
</clipPath>
</defs>
</svg>
