<svg width="39" height="34" viewBox="0 0 39 34" fill="none" xmlns="http://www.w3.org/2000/svg">
<g clip-path="url(#clip0_2105_3814)">
<path d="M7.22993 26.9361H10.0563C10.7214 26.9361 11.3448 26.562 11.6774 26.0217L14.7116 20.7845C14.8778 20.452 14.8778 20.0779 14.7116 19.7454C14.3791 19.1635 14.3791 18.4569 14.7116 17.875L19.5331 9.47891C19.8656 8.897 19.8656 8.1904 19.5331 7.60849L17.6627 4.36644C17.3302 3.8261 16.5404 3.8261 16.2079 4.36644L0.122348 32.4227C-0.251735 33.0877 0.205478 33.9606 0.995209 33.9606H1.03677C1.70181 33.9606 2.32528 33.5865 2.6578 33.0461L5.65047 27.8505C5.98298 27.3102 6.56489 26.9361 7.22993 26.9361Z" fill="#EA4D4D"/>
<path d="M29.5105 31.0506L27.5154 27.5592C27.3492 27.3098 27.0998 27.1436 26.8088 27.1436H20.0753C19.7844 27.1436 19.4934 27.3098 19.3687 27.5592L19.0362 28.1827C18.87 28.4321 18.6206 28.5983 18.3296 28.5983H7.4812C7.19025 28.5983 6.89929 28.7646 6.7746 29.014L4.61323 32.7548C4.28071 33.2951 4.69636 34.0017 5.31983 34.0017L37.5741 33.9602C38.3638 33.9602 38.8626 33.0873 38.4885 32.4223C38.156 31.8404 37.5325 31.5079 36.8675 31.5079H30.3418C29.9262 31.4663 29.6352 31.3416 29.5105 31.0506Z" fill="#EA4D4D"/>
<path d="M22.1509 8.85542L20.1558 12.3469C19.9895 12.5963 19.9895 12.9288 20.1558 13.1782L23.5225 19.0388C23.6888 19.2882 23.9382 19.4544 24.2291 19.4544H24.9357C25.2267 19.4544 25.5176 19.6207 25.6423 19.8701L31.0873 29.2637C31.2536 29.5131 31.5029 29.6794 31.7939 29.6794H36.1166C36.7401 29.6794 37.1558 28.9728 36.8232 28.4324L20.6961 0.500898C20.2805 -0.205703 19.2829 -0.205703 18.9088 0.500898C18.5763 1.08281 18.5763 1.78941 18.9088 2.37131L22.1509 8.02413C22.2756 8.31508 22.2756 8.60603 22.1509 8.85542Z" fill="#EA4D4D"/>
</g>
<defs>
<clipPath id="clip0_2105_3814">
<rect width="38.489" height="34" fill="white"/>
</clipPath>
</defs>
</svg>
