<svg width="24" height="24" viewBox="0 0 24 24" fill="none" xmlns="http://www.w3.org/2000/svg">
<circle cx="12" cy="12" r="12" fill="#D52E4C"/>
<path d="M16.7934 8.42933C16.3321 8.89065 16.294 9.61365 16.5596 10.2096C17.3673 12.0213 17.0966 14.1615 15.6097 15.6484C14.1259 17.1322 12.0157 17.3713 10.2222 16.5593C9.62438 16.2886 8.89673 16.3259 8.4327 16.79C7.8729 17.3498 7.9227 18.2831 8.62508 18.6484C11.43 20.1076 14.9519 19.7066 17.3292 17.3292C19.7078 14.9507 20.108 11.4265 18.6463 8.6208C18.2816 7.92097 17.3515 7.87133 16.7934 8.42933ZM6.66482 6.66482C4.28767 9.042 3.89894 12.5567 5.34758 15.3596C5.71187 16.0645 6.64734 16.1161 7.20838 15.555C7.67138 15.092 7.70963 14.3665 7.44003 13.7699C6.63252 11.983 6.86352 9.88567 8.35515 8.394C9.8493 6.89986 11.9787 6.64309 13.7808 7.4421C14.376 7.70595 15.097 7.66635 15.5573 7.206C16.1171 6.64624 16.0656 5.71288 15.3625 5.3491C12.5591 3.89866 9.04283 4.28684 6.66482 6.66482Z" fill="white"/>
</svg>
