<svg width="80" height="80" viewBox="0 0 80 80" fill="none" xmlns="http://www.w3.org/2000/svg">
<rect width="80" height="80" rx="20" fill="black"/>
<g clip-path="url(#clip0_2110_5607)">
<path fill-rule="evenodd" clip-rule="evenodd" d="M41.1225 30.8141L44.2032 25.4229C44.3958 25.0378 44.3958 24.5885 44.2032 24.1393L39.1971 15.4107C38.6836 14.5121 38.6836 13.4211 39.1971 12.5225C39.7747 11.4315 41.3151 11.4315 41.9569 12.5225L66.8591 55.6521C67.3725 56.4865 66.7307 57.5775 65.768 57.5775H59.0932C58.6439 57.5775 58.2588 57.3208 58.0021 56.9357L49.5944 42.4308C49.4019 42.0458 48.9526 41.789 48.5033 41.789H47.4123C46.963 41.789 46.5779 41.5323 46.3212 41.1472L41.1225 32.0977C40.8658 31.7126 40.8658 31.1992 41.1225 30.8141ZM21.1636 53.3417H25.5279C26.5548 53.3417 27.5175 52.7641 28.0309 51.9297L32.7161 43.843C32.9729 43.3295 32.9729 42.7519 32.7161 42.2384C32.2027 41.3399 32.2027 40.2488 32.7161 39.3503L40.1611 26.3857C40.6746 25.4872 40.6746 24.3961 40.1611 23.4976L37.273 18.4915C36.7595 17.6571 35.5401 17.6571 35.0267 18.4915L10.1886 61.8136C9.61101 62.8405 10.317 64.1883 11.5364 64.1883H11.6006C12.6275 64.1883 13.5902 63.6107 14.1037 62.7763L18.7247 54.7537C19.2382 53.9194 20.1367 53.3417 21.1636 53.3417ZM55.5679 59.6949L52.4872 54.3037C52.2305 53.9187 51.8454 53.6619 51.3961 53.6619H40.9988C40.5496 53.6619 40.1003 53.9187 39.9077 54.3037L39.3943 55.2664C39.1376 55.6515 38.7525 55.9083 38.3032 55.9083H21.552C21.1027 55.9083 20.6535 56.165 20.4609 56.5501L17.1235 62.3264C16.6101 63.1607 17.2519 64.2518 18.2146 64.2518L68.019 64.1876C69.2384 64.1876 70.0086 62.8398 69.431 61.8129C68.9175 60.9144 67.9548 60.4009 66.9279 60.4009H56.8515C56.2097 60.3367 55.7604 60.1442 55.5679 59.6949Z" fill="#EA4D4D"/>
</g>
<defs>
<clipPath id="clip0_2110_5607">
<rect width="60" height="60" fill="white" transform="translate(10 8)"/>
</clipPath>
</defs>
</svg>
