<svg
  width="24"
  height="24"
  viewBox="0 0 24 24"
  fill="none"
  xmlns="http://www.w3.org/2000/svg"
>
  <path
    fill-rule="evenodd"
    clip-rule="evenodd"
    d="M6 8.80005C4.89543 8.80005 4 9.69548 4 10.8V18C4 19.1046 4.89543 20 6 20H18C19.1046 20 20 19.1046 20 18.0001V10.8C20 9.69548 19.1046 8.80005 18 8.80005H6ZM15.1998 12.8C14.3162 12.8 13.5998 13.5164 13.5998 14.4C13.5998 15.2837 14.3162 16 15.1998 16H19.9998V12.8H15.1998Z"
    fill="currentColor"
  />
  <ellipse
    cx="15.2002"
    cy="14.4001"
    rx="0.8"
    ry="0.8"
    fill="currentColor"
  />
  <path
    d="M12.8121 4.70557C13.7227 4.30087 14.7923 4.6282 15.3204 5.47319L16.3996 7.2H7.19965L12.8121 4.70557Z"
    fill="currentColor"
  />
</svg>